<svg width="350" height="350" viewBox="0 0 350 350" fill="none" xmlns="http://www.w3.org/2000/svg">
<g clip-path="url(#clip0_42:4)">
<path d="M166.25 123.594C146.562 86.4062 125.781 51.4062 103.906 16.4062C50.312 39.375 10.937 89.6875 2.18701 149.844C54.687 150.938 109.375 142.188 166.25 123.594Z" fill="black"/>
<path d="M187.032 115.938C226.407 100.625 264.688 80.9375 304.063 56.875C271.25 21.875 226.406 0 175 0C157.5 0 140 2.1875 124.688 7.65625C146.563 42.6562 167.344 78.75 187.032 115.938Z" fill="black"/>
<path d="M217.656 180.469C249.375 171.719 283.281 166.25 317.188 166.25C328.125 166.25 337.969 166.25 348.906 167.344C347.812 132.344 335.781 99.5312 317.188 73.2812C276.719 99.5312 236.25 120.312 196.875 135.625C203.438 150.937 211.094 165.156 217.656 180.469Z" fill="black"/>
<path d="M196.875 187.031C190.312 171.719 182.656 157.5 175 142.188C120.312 160.781 66.7188 170.625 15.3125 170.625C9.84375 170.625 5.46875 170.625 0 170.625C0 171.719 0 172.812 0 175C0 218.75 16.4062 258.125 42.6562 288.75C86.4062 241.719 138.906 207.813 196.875 187.031Z" fill="black"/>
<path d="M318.282 189.219C287.657 189.219 257.032 193.594 227.5 201.25C245 239.531 259.219 280 273.438 320.469C316.094 292.031 344.532 245 350 191.406C339.063 189.219 328.125 189.219 318.282 189.219Z" fill="black"/>
<path d="M206.719 207.812C150.938 226.406 100.625 259.219 57.9692 305.156C88.5942 332.5 130.157 350 175 350C203.438 350 229.688 343.437 253.751 331.406C239.532 288.75 224.219 248.281 206.719 207.812Z" fill="black"/>
</g>
<defs>
<clipPath id="clip0_42:4">
<rect width="350" height="350" fill="white"/>
</clipPath>
</defs>
</svg>
